<?xml version="1.0" standalone="no"?>
<svg xmlns:xlink="http://www.w3.org/1999/xlink" id="wave" style="transform:rotate(0deg); transition: 0.3s" viewBox="0 0 1440 360" version="1.1" xmlns="http://www.w3.org/2000/svg"><defs><linearGradient id="sw-gradient-0" x1="0" x2="0" y1="1" y2="0"><stop stop-color="rgba(255, 0, 200, 1)" offset="0%"/><stop stop-color="rgba(179, 0, 255, 1)" offset="100%"/></linearGradient></defs><path style="transform:translate(0, 0px); opacity:1" fill="url(#sw-gradient-0)" d="M0,180L30,186C60,192,120,204,180,216C240,228,300,240,360,204C420,168,480,84,540,96C600,108,660,216,720,234C780,252,840,180,900,168C960,156,1020,204,1080,240C1140,276,1200,300,1260,288C1320,276,1380,228,1440,210C1500,192,1560,204,1620,198C1680,192,1740,168,1800,174C1860,180,1920,216,1980,228C2040,240,2100,228,2160,192C2220,156,2280,96,2340,60C2400,24,2460,12,2520,12C2580,12,2640,24,2700,78C2760,132,2820,228,2880,258C2940,288,3000,252,3060,234C3120,216,3180,216,3240,228C3300,240,3360,264,3420,264C3480,264,3540,240,3600,240C3660,240,3720,264,3780,270C3840,276,3900,264,3960,216C4020,168,4080,84,4140,90C4200,96,4260,192,4290,240L4320,288L4320,360L4290,360C4260,360,4200,360,4140,360C4080,360,4020,360,3960,360C3900,360,3840,360,3780,360C3720,360,3660,360,3600,360C3540,360,3480,360,3420,360C3360,360,3300,360,3240,360C3180,360,3120,360,3060,360C3000,360,2940,360,2880,360C2820,360,2760,360,2700,360C2640,360,2580,360,2520,360C2460,360,2400,360,2340,360C2280,360,2220,360,2160,360C2100,360,2040,360,1980,360C1920,360,1860,360,1800,360C1740,360,1680,360,1620,360C1560,360,1500,360,1440,360C1380,360,1320,360,1260,360C1200,360,1140,360,1080,360C1020,360,960,360,900,360C840,360,780,360,720,360C660,360,600,360,540,360C480,360,420,360,360,360C300,360,240,360,180,360C120,360,60,360,30,360L0,360Z"/></svg>